<svg width="455" height="429" viewBox="0 0 455 429" fill="none" xmlns="http://www.w3.org/2000/svg">
<path fill-rule="evenodd" clip-rule="evenodd" d="M251.081 311.055C254.36 309.961 257.905 311.731 258.999 315.01C260.093 318.288 258.322 321.833 255.044 322.927L248.769 325.021L253.502 329.125C256.162 331.432 256.403 335.417 254.04 338.028C251.677 340.638 247.606 340.884 244.946 338.577L239.965 334.258L238.379 341.623C237.637 345.065 234.234 347.313 230.777 346.645C227.32 345.977 225.119 342.645 225.861 339.204L227.378 332.16L221.421 334.148C218.143 335.242 214.598 333.471 213.504 330.193C212.41 326.914 214.181 323.37 217.459 322.275L223.733 320.182L219.001 316.078C216.341 313.771 216.1 309.785 218.463 307.175C220.825 304.565 224.897 304.319 227.557 306.625L232.041 310.514L233.093 305.632C233.834 302.19 237.238 299.942 240.695 300.61C244.151 301.278 246.353 304.61 245.611 308.051L244.49 313.254L251.081 311.055Z" fill="url(#paint0_linear_637_74)"/>
<path fill-rule="evenodd" clip-rule="evenodd" d="M180.255 335.746C183.534 334.652 187.078 336.423 188.172 339.701C189.266 342.979 187.496 346.524 184.217 347.618L177.943 349.712L182.676 353.816C185.335 356.123 185.576 360.109 183.214 362.719C180.851 365.329 176.779 365.575 174.12 363.269L169.139 358.949L167.552 366.314C166.811 369.756 163.408 372.005 159.951 371.336C156.494 370.668 154.293 367.337 155.034 363.895L156.552 356.851L150.595 358.839C147.316 359.933 143.772 358.162 142.678 354.884C141.584 351.605 143.354 348.061 146.633 346.967L152.907 344.873L148.175 340.769C145.515 338.462 145.274 334.476 147.637 331.866C149.999 329.256 154.071 329.01 156.731 331.316L161.215 335.205L162.267 330.323C163.008 326.881 166.412 324.633 169.868 325.301C173.325 325.969 175.526 329.301 174.785 332.743L173.664 337.946L180.255 335.746Z" fill="url(#paint1_linear_637_74)"/>
<path fill-rule="evenodd" clip-rule="evenodd" d="M246.997 384.105C250.275 383.011 253.82 384.782 254.914 388.06C256.008 391.339 254.237 394.883 250.959 395.977L244.684 398.071L249.417 402.175C252.077 404.482 252.318 408.468 249.955 411.078C247.592 413.688 243.521 413.934 240.861 411.628L235.88 407.309L234.294 414.673C233.552 418.115 230.149 420.364 226.692 419.696C223.235 419.027 221.034 415.696 221.776 412.254L223.293 405.21L217.336 407.198C214.058 408.292 210.513 406.521 209.419 403.243C208.325 399.964 210.096 396.42 213.374 395.326L219.648 393.232L214.916 389.128C212.256 386.821 212.015 382.835 214.378 380.225C216.741 377.615 220.812 377.369 223.472 379.676L227.956 383.564L229.008 378.682C229.749 375.24 233.153 372.992 236.61 373.66C240.066 374.328 242.268 377.66 241.526 381.102L240.405 386.305L246.997 384.105Z" fill="url(#paint2_linear_637_74)"/>
<path fill-rule="evenodd" clip-rule="evenodd" d="M174.255 389.055C177.534 387.961 181.078 389.731 182.172 393.01C183.266 396.288 181.496 399.833 178.217 400.927L171.943 403.021L176.676 407.125C179.335 409.432 179.576 413.417 177.214 416.028C174.851 418.638 170.779 418.884 168.12 416.577L163.139 412.258L161.552 419.623C160.811 423.065 157.408 425.313 153.951 424.645C150.494 423.977 148.293 420.645 149.034 417.204L150.552 410.16L144.595 412.148C141.316 413.242 137.772 411.471 136.678 408.193C135.584 404.914 137.354 401.37 140.633 400.275L146.907 398.182L142.175 394.078C139.515 391.771 139.274 387.785 141.637 385.175C143.999 382.565 148.071 382.319 150.731 384.625L155.215 388.514L156.267 383.632C157.008 380.19 160.412 377.942 163.868 378.61C167.325 379.278 169.526 382.61 168.785 386.051L167.664 391.254L174.255 389.055Z" fill="url(#paint3_linear_637_74)"/>
<g filter="url(#filter0_bdf_637_74)">
<path d="M355 183C355 228.84 317.84 266 272 266C226.16 266 189 228.84 189 183C189 137.16 226.16 100 272 100C317.84 100 355 137.16 355 183Z" fill="url(#paint4_radial_637_74)"/>
</g>
<path d="M355 183C355 228.84 317.84 266 272 266C226.16 266 189 228.84 189 183C189 137.16 226.16 100 272 100C317.84 100 355 137.16 355 183Z" fill="url(#paint5_radial_637_74)"/>
<g filter="url(#filter1_b_637_74)">
<path d="M55.0588 268C24.6507 268 0 243.376 0 213C0 186.468 18.8065 164.324 43.8295 159.145C52.4318 126.819 81.9313 103 117 103C156.645 103 189.172 133.44 192.436 172.2C215.915 175.419 234 195.537 234 219.875C234 246.454 212.431 268 185.824 268H120.441H55.0588Z" fill="url(#paint6_linear_637_74)"/>
<path d="M43.8335 159.164L43.8456 159.162L43.8488 159.15C52.4488 126.833 81.9406 103.02 117 103.02C156.634 103.02 189.153 133.452 192.417 172.201L192.418 172.217L192.434 172.219C215.902 175.438 233.98 195.547 233.98 219.875C233.98 246.443 212.42 267.98 185.824 267.98H120.441H55.0588C24.6617 267.98 0.02 243.365 0.02 213C0.02 186.478 18.8196 164.342 43.8335 159.164Z" stroke="black" stroke-width="0.04"/>
</g>
<g filter="url(#filter2_b_637_74)">
<path d="M113.882 360C73.0783 360 40 327.018 40 286.333C40 250.797 65.236 221.138 98.8139 214.2C110.357 170.903 149.942 139 197 139C250.198 139 293.846 179.772 298.227 231.686C329.732 235.998 354 262.944 354 295.542C354 331.141 325.057 360 289.353 360H201.618H113.882Z" fill="url(#paint7_linear_637_74)"/>
<path d="M98.818 214.22L98.8301 214.217L98.8333 214.205C110.374 170.917 149.951 139.02 197 139.02C250.188 139.02 293.827 179.784 298.207 231.687L298.208 231.703L298.224 231.705C329.719 236.016 353.98 262.954 353.98 295.542C353.98 331.13 325.046 359.98 289.353 359.98H201.618H113.882C73.0892 359.98 40.02 327.007 40.02 286.333C40.02 250.807 65.2491 221.155 98.818 214.22Z" stroke="black" stroke-width="0.04"/>
</g>
<defs>
<filter id="filter0_bdf_637_74" x="89" y="0" width="366" height="366" filterUnits="userSpaceOnUse" color-interpolation-filters="sRGB">
<feFlood flood-opacity="0" result="BackgroundImageFix"/>
<feGaussianBlur in="BackgroundImageFix" stdDeviation="16"/>
<feComposite in2="SourceAlpha" operator="in" result="effect1_backgroundBlur_637_74"/>
<feColorMatrix in="SourceAlpha" type="matrix" values="0 0 0 0 0 0 0 0 0 0 0 0 0 0 0 0 0 0 127 0" result="hardAlpha"/>
<feOffset dy="4"/>
<feGaussianBlur stdDeviation="2"/>
<feComposite in2="hardAlpha" operator="out"/>
<feColorMatrix type="matrix" values="0 0 0 0 0 0 0 0 0 0 0 0 0 0 0 0 0 0 0.25 0"/>
<feBlend mode="normal" in2="effect1_backgroundBlur_637_74" result="effect2_dropShadow_637_74"/>
<feBlend mode="normal" in="SourceGraphic" in2="effect2_dropShadow_637_74" result="shape"/>
<feGaussianBlur stdDeviation="50" result="effect3_foregroundBlur_637_74"/>
</filter>
<filter id="filter1_b_637_74" x="-12" y="91" width="258" height="189" filterUnits="userSpaceOnUse" color-interpolation-filters="sRGB">
<feFlood flood-opacity="0" result="BackgroundImageFix"/>
<feGaussianBlur in="BackgroundImageFix" stdDeviation="6"/>
<feComposite in2="SourceAlpha" operator="in" result="effect1_backgroundBlur_637_74"/>
<feBlend mode="normal" in="SourceGraphic" in2="effect1_backgroundBlur_637_74" result="shape"/>
</filter>
<filter id="filter2_b_637_74" x="24" y="123" width="346" height="253" filterUnits="userSpaceOnUse" color-interpolation-filters="sRGB">
<feFlood flood-opacity="0" result="BackgroundImageFix"/>
<feGaussianBlur in="BackgroundImageFix" stdDeviation="8"/>
<feComposite in2="SourceAlpha" operator="in" result="effect1_backgroundBlur_637_74"/>
<feBlend mode="normal" in="SourceGraphic" in2="effect1_backgroundBlur_637_74" result="shape"/>
</filter>
<linearGradient id="paint0_linear_637_74" x1="217.293" y1="329.215" x2="255.911" y2="316.327" gradientUnits="userSpaceOnUse">
<stop stop-color="#070FD5"/>
<stop offset="1" stop-color="#06CDF9"/>
</linearGradient>
<linearGradient id="paint1_linear_637_74" x1="146.467" y1="353.906" x2="185.085" y2="341.019" gradientUnits="userSpaceOnUse">
<stop stop-color="#070FD5"/>
<stop offset="1" stop-color="#06CDF9"/>
</linearGradient>
<linearGradient id="paint2_linear_637_74" x1="213.208" y1="402.265" x2="251.826" y2="389.378" gradientUnits="userSpaceOnUse">
<stop stop-color="#070FD5"/>
<stop offset="1" stop-color="#06CDF9"/>
</linearGradient>
<linearGradient id="paint3_linear_637_74" x1="140.467" y1="407.215" x2="179.085" y2="394.327" gradientUnits="userSpaceOnUse">
<stop stop-color="#070FD5"/>
<stop offset="1" stop-color="#06CDF9"/>
</linearGradient>
<radialGradient id="paint4_radial_637_74" cx="0" cy="0" r="1" gradientUnits="userSpaceOnUse" gradientTransform="translate(305.402 142.917) rotate(127.112) scale(141.334)">
<stop stop-color="#FFD600"/>
<stop offset="1" stop-color="#FF6B00"/>
</radialGradient>
<radialGradient id="paint5_radial_637_74" cx="0" cy="0" r="1" gradientUnits="userSpaceOnUse" gradientTransform="translate(305.402 142.917) rotate(127.112) scale(141.334)">
<stop stop-color="#FFD600"/>
<stop offset="1" stop-color="#FF6B00"/>
</radialGradient>
<linearGradient id="paint6_linear_637_74" x1="0" y1="103" x2="237.768" y2="262.379" gradientUnits="userSpaceOnUse">
<stop stop-color="white" stop-opacity="0.9"/>
<stop offset="1" stop-color="white" stop-opacity="0.4"/>
</linearGradient>
<linearGradient id="paint7_linear_637_74" x1="40" y1="139" x2="358.689" y2="353.018" gradientUnits="userSpaceOnUse">
<stop stop-color="white" stop-opacity="0.9"/>
<stop offset="1" stop-color="white" stop-opacity="0.4"/>
</linearGradient>
</defs>
</svg>
