<svg width="455" height="366" viewBox="0 0 455 366" fill="none" xmlns="http://www.w3.org/2000/svg">
<g filter="url(#filter0_bdf_643_76)">
<path d="M355 183C355 228.84 317.84 266 272 266C226.16 266 189 228.84 189 183C189 137.16 226.16 100 272 100C317.84 100 355 137.16 355 183Z" fill="url(#paint0_radial_643_76)"/>
</g>
<path d="M355 183C355 228.84 317.84 266 272 266C226.16 266 189 228.84 189 183C189 137.16 226.16 100 272 100C317.84 100 355 137.16 355 183Z" fill="url(#paint1_radial_643_76)"/>
<g filter="url(#filter1_b_643_76)">
<path d="M55.0588 268C24.6507 268 0 243.376 0 213C0 186.468 18.8065 164.324 43.8295 159.145C52.4318 126.819 81.9313 103 117 103C156.645 103 189.172 133.44 192.436 172.2C215.915 175.419 234 195.537 234 219.875C234 246.454 212.431 268 185.824 268H120.441H55.0588Z" fill="url(#paint2_linear_643_76)"/>
<path d="M43.8335 159.164L43.8456 159.162L43.8488 159.15C52.4488 126.833 81.9406 103.02 117 103.02C156.634 103.02 189.153 133.452 192.417 172.201L192.418 172.217L192.434 172.219C215.902 175.438 233.98 195.547 233.98 219.875C233.98 246.443 212.42 267.98 185.824 267.98H120.441H55.0588C24.6617 267.98 0.02 243.365 0.02 213C0.02 186.478 18.8196 164.342 43.8335 159.164Z" stroke="black" stroke-width="0.04"/>
</g>
<g filter="url(#filter2_b_643_76)">
<path d="M113.882 360C73.0783 360 40 327.018 40 286.333C40 250.797 65.236 221.138 98.8139 214.2C110.357 170.903 149.942 139 197 139C250.198 139 293.846 179.772 298.227 231.686C329.732 235.998 354 262.944 354 295.542C354 331.141 325.057 360 289.353 360H201.618H113.882Z" fill="url(#paint3_linear_643_76)"/>
<path d="M98.818 214.22L98.8301 214.217L98.8333 214.205C110.374 170.917 149.951 139.02 197 139.02C250.188 139.02 293.827 179.784 298.207 231.687L298.208 231.703L298.224 231.705C329.719 236.016 353.98 262.954 353.98 295.542C353.98 331.13 325.046 359.98 289.353 359.98H201.618H113.882C73.0892 359.98 40.02 327.007 40.02 286.333C40.02 250.807 65.2491 221.155 98.818 214.22Z" stroke="black" stroke-width="0.04"/>
</g>
<defs>
<filter id="filter0_bdf_643_76" x="89" y="0" width="366" height="366" filterUnits="userSpaceOnUse" color-interpolation-filters="sRGB">
<feFlood flood-opacity="0" result="BackgroundImageFix"/>
<feGaussianBlur in="BackgroundImageFix" stdDeviation="16"/>
<feComposite in2="SourceAlpha" operator="in" result="effect1_backgroundBlur_643_76"/>
<feColorMatrix in="SourceAlpha" type="matrix" values="0 0 0 0 0 0 0 0 0 0 0 0 0 0 0 0 0 0 127 0" result="hardAlpha"/>
<feOffset dy="4"/>
<feGaussianBlur stdDeviation="2"/>
<feComposite in2="hardAlpha" operator="out"/>
<feColorMatrix type="matrix" values="0 0 0 0 0 0 0 0 0 0 0 0 0 0 0 0 0 0 0.25 0"/>
<feBlend mode="normal" in2="effect1_backgroundBlur_643_76" result="effect2_dropShadow_643_76"/>
<feBlend mode="normal" in="SourceGraphic" in2="effect2_dropShadow_643_76" result="shape"/>
<feGaussianBlur stdDeviation="50" result="effect3_foregroundBlur_643_76"/>
</filter>
<filter id="filter1_b_643_76" x="-12" y="91" width="258" height="189" filterUnits="userSpaceOnUse" color-interpolation-filters="sRGB">
<feFlood flood-opacity="0" result="BackgroundImageFix"/>
<feGaussianBlur in="BackgroundImageFix" stdDeviation="6"/>
<feComposite in2="SourceAlpha" operator="in" result="effect1_backgroundBlur_643_76"/>
<feBlend mode="normal" in="SourceGraphic" in2="effect1_backgroundBlur_643_76" result="shape"/>
</filter>
<filter id="filter2_b_643_76" x="32" y="131" width="330" height="237" filterUnits="userSpaceOnUse" color-interpolation-filters="sRGB">
<feFlood flood-opacity="0" result="BackgroundImageFix"/>
<feGaussianBlur in="BackgroundImageFix" stdDeviation="4"/>
<feComposite in2="SourceAlpha" operator="in" result="effect1_backgroundBlur_643_76"/>
<feBlend mode="normal" in="SourceGraphic" in2="effect1_backgroundBlur_643_76" result="shape"/>
</filter>
<radialGradient id="paint0_radial_643_76" cx="0" cy="0" r="1" gradientUnits="userSpaceOnUse" gradientTransform="translate(305.402 142.917) rotate(127.112) scale(141.334)">
<stop stop-color="#FFD600"/>
<stop offset="1" stop-color="#FF6B00"/>
</radialGradient>
<radialGradient id="paint1_radial_643_76" cx="0" cy="0" r="1" gradientUnits="userSpaceOnUse" gradientTransform="translate(305.402 142.917) rotate(127.112) scale(141.334)">
<stop stop-color="#FFD600"/>
<stop offset="1" stop-color="#FF6B00"/>
</radialGradient>
<linearGradient id="paint2_linear_643_76" x1="0" y1="103" x2="237.768" y2="262.379" gradientUnits="userSpaceOnUse">
<stop stop-color="white" stop-opacity="0.9"/>
<stop offset="1" stop-color="white" stop-opacity="0.4"/>
</linearGradient>
<linearGradient id="paint3_linear_643_76" x1="40" y1="139" x2="358.689" y2="353.018" gradientUnits="userSpaceOnUse">
<stop stop-color="white" stop-opacity="0.9"/>
<stop offset="1" stop-color="white" stop-opacity="0.8"/>
</linearGradient>
</defs>
</svg>
