<svg width="391" height="380" viewBox="0 0 391 380" fill="none" xmlns="http://www.w3.org/2000/svg">
<g filter="url(#filter0_bdf_635_33)">
<path fill-rule="evenodd" clip-rule="evenodd" d="M195.5 280C248.243 280 291 239.706 291 190C291 184.966 290.561 180.028 289.718 175.22C283.638 204.051 256.645 225.783 224.265 225.783C187.408 225.783 157.53 197.626 157.53 162.892C157.53 132.377 180.59 106.938 211.184 101.208C206.081 100.413 200.842 100 195.5 100C142.757 100 100 140.294 100 190C100 239.706 142.757 280 195.5 280Z" fill="url(#paint0_radial_635_33)"/>
</g>
<path fill-rule="evenodd" clip-rule="evenodd" d="M208 273C253.84 273 291 235.84 291 190C291 185.358 290.619 180.804 289.886 176.369C284.602 202.958 261.141 223 233 223C200.967 223 175 197.033 175 165C175 136.859 195.042 113.398 221.631 108.114C217.196 107.381 212.642 107 208 107C162.16 107 125 144.16 125 190C125 235.84 162.16 273 208 273Z" fill="url(#paint1_radial_635_33)"/>
<defs>
<filter id="filter0_bdf_635_33" x="0" y="0" width="391" height="380" filterUnits="userSpaceOnUse" color-interpolation-filters="sRGB">
<feFlood flood-opacity="0" result="BackgroundImageFix"/>
<feGaussianBlur in="BackgroundImageFix" stdDeviation="16"/>
<feComposite in2="SourceAlpha" operator="in" result="effect1_backgroundBlur_635_33"/>
<feColorMatrix in="SourceAlpha" type="matrix" values="0 0 0 0 0 0 0 0 0 0 0 0 0 0 0 0 0 0 127 0" result="hardAlpha"/>
<feOffset dy="4"/>
<feGaussianBlur stdDeviation="2"/>
<feComposite in2="hardAlpha" operator="out"/>
<feColorMatrix type="matrix" values="0 0 0 0 0 0 0 0 0 0 0 0 0 0 0 0 0 0 0.25 0"/>
<feBlend mode="normal" in2="effect1_backgroundBlur_635_33" result="effect2_dropShadow_635_33"/>
<feBlend mode="normal" in="SourceGraphic" in2="effect2_dropShadow_635_33" result="shape"/>
<feGaussianBlur stdDeviation="50" result="effect3_foregroundBlur_635_33"/>
</filter>
<radialGradient id="paint0_radial_635_33" cx="0" cy="0" r="1" gradientUnits="userSpaceOnUse" gradientTransform="translate(233.933 146.537) rotate(128.76) scale(156.728 159.014)">
<stop stop-color="#C6DFFD"/>
<stop offset="1" stop-color="#94B7DF"/>
</radialGradient>
<radialGradient id="paint1_radial_635_33" cx="0" cy="0" r="1" gradientUnits="userSpaceOnUse" gradientTransform="translate(241.402 149.917) rotate(127.112) scale(141.334)">
<stop stop-color="#C6DFFD"/>
<stop offset="1" stop-color="#94B7DF"/>
</radialGradient>
</defs>
</svg>
