<svg width="455" height="424" viewBox="0 0 455 424" fill="none" xmlns="http://www.w3.org/2000/svg">
<path fill-rule="evenodd" clip-rule="evenodd" d="M226.558 328.531C230.856 331.358 232.053 337.139 229.23 341.444L196.645 391.144C193.822 395.448 188.05 396.647 183.752 393.82C179.454 390.993 178.258 385.212 181.08 380.908L213.666 331.207C216.488 326.903 222.26 325.705 226.558 328.531ZM180.007 337.856C184.305 340.682 185.502 346.463 182.679 350.768L150.094 400.468C147.271 404.773 141.499 405.971 137.201 403.144C132.903 400.318 131.707 394.537 134.529 390.232L167.115 340.532C169.937 336.227 175.709 335.029 180.007 337.856ZM263.799 347.18C268.097 350.007 269.293 355.788 266.471 360.092L233.885 409.793C231.063 414.097 225.291 415.295 220.993 412.469C216.695 409.642 215.498 403.861 218.321 399.556L250.906 349.856C253.729 345.552 259.501 344.353 263.799 347.18Z" fill="url(#paint0_linear_637_171)"/>
<path d="M207.712 387.38C209.965 385.646 209.106 383.44 205.995 383.44H184.001L223.426 326.073C224.714 324.34 223.748 323 221.388 323H174.978C171.867 323 170.794 323.788 169.828 325.443L149.455 392.345C148.275 394.315 149.455 395.497 152.245 395.497H170.912L156.214 421.66C155.678 422.685 156 423.551 156.965 423.867C157.931 424.182 159.111 423.946 160.291 423.079L207.712 387.38Z" fill="url(#paint1_linear_637_171)"/>
<path fill-rule="evenodd" clip-rule="evenodd" d="M272 266C317.84 266 355 228.84 355 183C355 178.358 354.619 173.804 353.886 169.369C348.602 195.958 325.141 216 297 216C264.967 216 239 190.033 239 158C239 129.859 259.042 106.398 285.631 101.114C281.196 100.381 276.642 100 272 100C226.16 100 189 137.16 189 183C189 228.84 226.16 266 272 266Z" fill="url(#paint2_radial_637_171)"/>
<g filter="url(#filter0_bdf_637_171)">
<path fill-rule="evenodd" clip-rule="evenodd" d="M272 266C317.84 266 355 228.84 355 183C355 178.358 354.619 173.804 353.886 169.369C348.602 195.958 325.141 216 297 216C264.967 216 239 190.033 239 158C239 129.859 259.042 106.398 285.631 101.114C281.196 100.381 276.642 100 272 100C226.16 100 189 137.16 189 183C189 228.84 226.16 266 272 266Z" fill="url(#paint3_radial_637_171)"/>
</g>
<g filter="url(#filter1_b_637_171)">
<path d="M55.0588 268C24.6507 268 0 243.376 0 213C0 186.468 18.8065 164.324 43.8295 159.145C52.4318 126.819 81.9313 103 117 103C156.645 103 189.172 133.44 192.436 172.2C215.915 175.419 234 195.537 234 219.875C234 246.454 212.431 268 185.824 268H120.441H55.0588Z" fill="url(#paint4_linear_637_171)"/>
<path d="M43.8335 159.164L43.8456 159.162L43.8488 159.15C52.4488 126.833 81.9406 103.02 117 103.02C156.634 103.02 189.153 133.452 192.417 172.201L192.418 172.217L192.434 172.219C215.902 175.438 233.98 195.547 233.98 219.875C233.98 246.443 212.42 267.98 185.824 267.98H120.441H55.0588C24.6617 267.98 0.02 243.365 0.02 213C0.02 186.478 18.8196 164.342 43.8335 159.164Z" stroke="black" stroke-width="0.04"/>
</g>
<g filter="url(#filter2_b_637_171)">
<path d="M113.882 360C73.0783 360 40 327.018 40 286.333C40 250.797 65.236 221.138 98.8139 214.2C110.357 170.903 149.942 139 197 139C250.198 139 293.846 179.772 298.227 231.686C329.732 235.998 354 262.944 354 295.542C354 331.141 325.057 360 289.353 360H201.618H113.882Z" fill="url(#paint5_linear_637_171)"/>
<path d="M98.818 214.22L98.8301 214.217L98.8333 214.205C110.374 170.917 149.951 139.02 197 139.02C250.188 139.02 293.827 179.784 298.207 231.687L298.208 231.703L298.224 231.705C329.719 236.016 353.98 262.954 353.98 295.542C353.98 331.13 325.046 359.98 289.353 359.98H201.618H113.882C73.0892 359.98 40.02 327.007 40.02 286.333C40.02 250.807 65.2491 221.155 98.818 214.22Z" stroke="black" stroke-width="0.04"/>
</g>
<defs>
<filter id="filter0_bdf_637_171" x="89" y="0" width="366" height="366" filterUnits="userSpaceOnUse" color-interpolation-filters="sRGB">
<feFlood flood-opacity="0" result="BackgroundImageFix"/>
<feGaussianBlur in="BackgroundImageFix" stdDeviation="16"/>
<feComposite in2="SourceAlpha" operator="in" result="effect1_backgroundBlur_637_171"/>
<feColorMatrix in="SourceAlpha" type="matrix" values="0 0 0 0 0 0 0 0 0 0 0 0 0 0 0 0 0 0 127 0" result="hardAlpha"/>
<feOffset dy="4"/>
<feGaussianBlur stdDeviation="2"/>
<feComposite in2="hardAlpha" operator="out"/>
<feColorMatrix type="matrix" values="0 0 0 0 0 0 0 0 0 0 0 0 0 0 0 0 0 0 0.25 0"/>
<feBlend mode="normal" in2="effect1_backgroundBlur_637_171" result="effect2_dropShadow_637_171"/>
<feBlend mode="normal" in="SourceGraphic" in2="effect2_dropShadow_637_171" result="shape"/>
<feGaussianBlur stdDeviation="50" result="effect3_foregroundBlur_637_171"/>
</filter>
<filter id="filter1_b_637_171" x="-12" y="91" width="258" height="189" filterUnits="userSpaceOnUse" color-interpolation-filters="sRGB">
<feFlood flood-opacity="0" result="BackgroundImageFix"/>
<feGaussianBlur in="BackgroundImageFix" stdDeviation="6"/>
<feComposite in2="SourceAlpha" operator="in" result="effect1_backgroundBlur_637_171"/>
<feBlend mode="normal" in="SourceGraphic" in2="effect1_backgroundBlur_637_171" result="shape"/>
</filter>
<filter id="filter2_b_637_171" x="24" y="123" width="346" height="253" filterUnits="userSpaceOnUse" color-interpolation-filters="sRGB">
<feFlood flood-opacity="0" result="BackgroundImageFix"/>
<feGaussianBlur in="BackgroundImageFix" stdDeviation="8"/>
<feComposite in2="SourceAlpha" operator="in" result="effect1_backgroundBlur_637_171"/>
<feBlend mode="normal" in="SourceGraphic" in2="effect1_backgroundBlur_637_171" result="shape"/>
</filter>
<linearGradient id="paint0_linear_637_171" x1="200.5" y1="327" x2="200.5" y2="414" gradientUnits="userSpaceOnUse">
<stop stop-color="#0066FF"/>
<stop offset="1" stop-color="#00C2FF"/>
</linearGradient>
<linearGradient id="paint1_linear_637_171" x1="224" y1="323" x2="127.314" y2="394.796" gradientUnits="userSpaceOnUse">
<stop stop-color="#FBEB71"/>
<stop offset="1" stop-color="#F4BB5D"/>
</linearGradient>
<radialGradient id="paint2_radial_637_171" cx="0" cy="0" r="1" gradientUnits="userSpaceOnUse" gradientTransform="translate(305.402 142.917) rotate(127.112) scale(141.334)">
<stop stop-color="#C6DFFD"/>
<stop offset="1" stop-color="#94B7DF"/>
</radialGradient>
<radialGradient id="paint3_radial_637_171" cx="0" cy="0" r="1" gradientUnits="userSpaceOnUse" gradientTransform="translate(305.402 142.917) rotate(127.112) scale(141.334)">
<stop stop-color="#C6DFFD"/>
<stop offset="1" stop-color="#94B7DF"/>
</radialGradient>
<linearGradient id="paint4_linear_637_171" x1="0" y1="103" x2="237.768" y2="262.379" gradientUnits="userSpaceOnUse">
<stop stop-color="white" stop-opacity="0.9"/>
<stop offset="1" stop-color="white" stop-opacity="0.4"/>
</linearGradient>
<linearGradient id="paint5_linear_637_171" x1="40" y1="139" x2="358.689" y2="353.018" gradientUnits="userSpaceOnUse">
<stop stop-color="white" stop-opacity="0.9"/>
<stop offset="1" stop-color="white" stop-opacity="0.4"/>
</linearGradient>
</defs>
</svg>
