<?xml version="1.0" encoding="utf-8"?>
<!-- Uploaded to: SVG Repo, www.svgrepo.com, Generator: SVG Repo Mixer Tools -->
<svg width="800px" height="800px" viewBox="0 0 1024 1024" class="icon"  version="1.1" xmlns="http://www.w3.org/2000/svg"><path d="M747.2 359.1c-21.1 0-41.4 3.9-60.2 11.1-9.7-112.1-98.4-200-206.5-200-104.8 0-191.4 82.6-205.4 189.8-5.9-0.6-11.8-0.9-17.8-0.9-98.3 0-177.9 84.6-177.9 188.9s77.5 189.3 175.7 189.3c1.7 0 8.5-0.3 11.4-0.5h-1.3v-0.2c3.3 0 3.1 0.1 1.3 0.2l442.2 0.5c12.9 0 24.5-0.6 38.5-0.6 98.2 0 177.8-84.5 177.8-188.8s-79.6-188.8-177.8-188.8z" fill="#00B36A" /><path d="M108.3 458.9c-13.4 26.5-21 56.8-21 89 0 104.3 77.5 189.3 175.7 189.3 1.7 0 8.5-0.3 11.4-0.5h-1.3v-0.2c3.3 0 3.1 0.1 1.3 0.2l442.2 0.5c5.9 0 11.6-0.1 17.3-0.2l1.7-2.4c-366.3 0.1-563.1-40.3-627.3-275.7z" fill="#009957" /><path d="M333.9 876.6c-4 0-8.1-1.2-11.6-3.7-8.9-6.4-10.9-18.8-4.5-27.7l119-165.6c6.4-8.9 18.8-10.9 27.7-4.5 8.9 6.4 10.9 18.8 4.5 27.7L350 868.4c-3.8 5.3-9.9 8.2-16.1 8.2zM437.8 876.6c-4 0-8.1-1.2-11.6-3.7-8.9-6.4-10.9-18.8-4.5-27.7l119-165.6c6.4-8.9 18.8-10.9 27.7-4.5 8.9 6.4 10.9 18.8 4.5 27.7l-119 165.6c-3.8 5.3-9.9 8.2-16.1 8.2zM541.7 876.6c-4 0-8.1-1.2-11.6-3.7-8.9-6.4-10.9-18.8-4.5-27.7l119-165.6c6.4-8.9 18.8-10.9 27.7-4.5 8.9 6.4 10.9 18.8 4.5 27.7l-119 165.6c-3.8 5.3-9.9 8.2-16.1 8.2z" fill="" /><path d="M718.5 757.5c-11.9 0-21.5-9.6-21.5-21.5s9.6-21.5 21.5-21.5c6.2 0 12-0.1 18-0.3 6.4-0.1 13.1-0.3 20.4-0.3 86.2 0 156.3-75.1 156.3-167.3S843.1 379.3 757 379.3c-18 0-35.7 3.3-52.5 9.7l-26.7 10.2-2.5-28.5c-8.9-102.8-88.4-180.3-185.1-180.3-92.2 0-171.3 73.5-184.1 171l-2.7 20.8-20.9-2.2c-5.2-0.6-10.4-0.8-15.6-0.8-86.2 0-156.3 75.1-156.3 167.3 0 88.3 63 160.9 142.7 167.3l21.5-0.2h2.7c0.8 0 1.7 0.1 2.5 0.2l39.5 0.1c11.9 0 21.5 9.7 21.5 21.6 0 11.9-9.7 21.5-21.5 21.5l-42.6-0.1c-1.1 0.1-2.5 0.1-4 0.2-3.3 0.1-6.9 0.3-8.1 0.3-53.4 0-103.3-22.2-140.5-62.5-36.6-39.6-56.7-92.3-56.7-148.4 0-115.9 89.3-210.3 199.2-210.4 23.1-109 116-188.8 223.4-188.8 57.7 0 112.8 22.7 155.2 64 35.6 34.7 59.7 80 69.2 129.6 13.9-3.2 28-4.8 42.3-4.8 109.9 0 199.3 94.4 199.3 210.4s-89.4 210.4-199.3 210.4c-6.9 0-13.3 0.1-19.5 0.3-6.2 0.2-12.4 0.3-18.9 0.3z" fill="#1A1A1A" /></svg>