<?xml version="1.0" encoding="utf-8"?>
<!-- Uploaded to: SVG Repo, www.svgrepo.com, Generator: SVG Repo Mixer Tools -->
<svg width="800px" height="800px" viewBox="0 0 1024 1024" class="icon"  version="1.1" xmlns="http://www.w3.org/2000/svg"><path d="M779.7 630.6l-328.2-0.4c-2.6 0.2-7.4 0.3-9 0.3-3.4 0-6.7-0.1-10.1-0.4h-0.1c-77-5.5-138.1-72.6-138.1-154.2 0-84.6 66.5-153.5 148.5-154.3C460.7 242.7 530 185 610.1 185c43.3 0 84.6 16.6 116.4 46.7 26.3 25 44.3 57.4 51.7 92.9 9.9-2.1 20-3.1 30.2-3.1 82.7 0 149.9 69.2 149.9 154.3 0 85.1-67.2 154.3-149.9 154.3-5.1 0-9.8 0.1-14.5 0.2-4.7 0.2-9.3 0.3-14.2 0.3z m-326.6-35.8l326.7 0.4c4.6 0 8.9-0.1 13.3-0.2 4.9-0.1 9.8-0.2 15.2-0.2 63.1 0 114.5-53.3 114.5-118.8s-51.4-118.8-114.5-118.8c-13.2 0-26.2 2.3-38.6 6.9l-21.8 8.1L746 349c-6.5-73.2-64.9-128.4-135.9-128.4-67.7 0-125.8 52.4-135.2 121.9l-2.3 17-17.1-1.8c-3.8-0.4-7.7-0.6-11.4-0.6-63.1 0-114.5 53.3-114.5 118.8 0 62.6 46 114.2 104.3 118.8l16.1-0.1c1.1 0 2.1 0.1 3.1 0.2z" fill="#1A1A1A" /><path d="M662.5 388.7c-18.6 0-36.3 3.5-52.9 9.8-8.5-98.5-86.4-175.6-181.4-175.6-92 0-168.1 72.5-180.4 166.7-5.2-0.5-10.4-0.8-15.7-0.8C145.9 388.8 76 463 76 554.6s68 166.2 154.3 166.2c1.5 0 7.5-0.2 10-0.4h-1.1v-0.2c2.9 0 2.7 0.1 1.1 0.2l388.3 0.5c11.3 0 21.5-0.5 33.8-0.5 86.2 0 156.1-74.2 156.1-165.8s-69.8-165.9-156-165.9z" fill="#00B36A" /><path d="M105.1 476.4c-11.7 23.3-18.4 49.9-18.4 78.2 0 91.6 68 166.2 154.3 166.2 1.5 0 7.5-0.2 10-0.4h-1.1v-0.2c2.9 0 2.7 0.1 1.1 0.2l388.3 0.5c5.2 0 10.2-0.1 15.2-0.2l1.5-2.1c-321.6-0.1-494.5-35.5-550.9-242.2z" fill="#009957" /><path d="M637.3 738.6c-10.4 0-18.9-8.5-18.9-18.9 0-10.4 8.5-18.9 18.9-18.9 5.4 0 10.6-0.1 15.8-0.2 5.7-0.1 11.5-0.3 18-0.3 75.7 0 137.2-65.9 137.2-146.9s-61.6-146.9-137.2-146.9c-15.8 0-31.3 2.9-46.1 8.5l-23.4 9-2.2-25c-7.8-90.2-77.7-158.3-162.5-158.3-81 0-150.4 64.6-161.6 150.2l-2.4 18.3-18.4-1.9c-4.6-0.5-9.2-0.7-13.7-0.7-75.7 0-137.2 65.9-137.2 146.9 0 77.6 55.4 141.3 125.3 146.9l18.9-0.2h2.3c0.7 0 1.5 0.1 2.2 0.2l34.7 0.1c10.4 0 18.9 8.5 18.9 19 0 10.4-8.5 18.9-18.9 18.9l-37.4-0.1c-1 0.1-2.2 0.1-3.5 0.2-2.9 0.1-6 0.2-7.1 0.2-46.9 0-90.7-19.5-123.4-54.9-32.1-34.8-49.8-81.1-49.8-130.3 0-101.8 78.5-184.7 174.9-184.7C261 273.1 342.6 203 436.9 203c50.7 0 99.1 20 136.3 56.2 31.3 30.5 52.4 70.3 60.7 113.8 12.2-2.8 24.6-4.2 37.2-4.2 96.5 0 175.1 82.9 175.1 184.7s-78.5 184.7-175.1 184.7c-6.1 0-11.7 0.1-17.1 0.2-5.6 0.1-11 0.2-16.7 0.2z" fill="#1A1A1A" /><path d="M400.1 779.6c-6.4 0-11.6-5.2-11.6-11.6V666.9c0-6.4 5.2-11.6 11.6-11.6s11.6 5.2 11.6 11.6V768c0.1 6.4-5.1 11.6-11.6 11.6z" fill="#1A1A1A" /><path d="M435.9 764.8c-3 0-6-1.1-8.2-3.4l-71.5-71.5c-4.5-4.5-4.5-11.9 0-16.5 4.5-4.5 11.9-4.5 16.5 0l71.5 71.5c4.5 4.5 4.5 11.9 0 16.5-2.3 2.3-5.3 3.4-8.3 3.4z" fill="#1A1A1A" /><path d="M364.4 764.8c-3 0-6-1.1-8.2-3.4-4.5-4.5-4.5-11.9 0-16.5l71.5-71.5c4.5-4.5 11.9-4.5 16.5 0 4.5 4.5 4.5 11.9 0 16.5l-71.5 71.5c-2.4 2.3-5.3 3.4-8.3 3.4z" fill="#1A1A1A" /><path d="M450.7 729.1H349.6c-6.4 0-11.6-5.2-11.6-11.6s5.2-11.6 11.6-11.6h101.1c6.4 0 11.6 5.2 11.6 11.6s-5.2 11.6-11.6 11.6z" fill="#1A1A1A" /><path d="M528.4 669.1c-5 0-9.1-4.1-9.1-9.1v-78.7c0-5 4.1-9.1 9.1-9.1s9.1 4.1 9.1 9.1V660c0 5-4.1 9.1-9.1 9.1z" fill="#1A1A1A" /><path d="M556.3 657.6c-2.3 0-4.6-0.9-6.4-2.7l-55.6-55.6c-3.5-3.5-3.5-9.3 0-12.8s9.3-3.5 12.8 0l55.6 55.6c3.5 3.5 3.5 9.3 0 12.8-1.8 1.8-4.1 2.7-6.4 2.7z" fill="#1A1A1A" /><path d="M500.6 657.6c-2.3 0-4.6-0.9-6.4-2.7-3.5-3.5-3.5-9.3 0-12.8l55.6-55.6c3.5-3.5 9.3-3.5 12.8 0s3.5 9.3 0 12.8L507 654.9c-1.7 1.8-4.1 2.7-6.4 2.7z" fill="#1A1A1A" /><path d="M567.8 629.8h-78.7c-5 0-9.1-4.1-9.1-9.1s4.1-9.1 9.1-9.1h78.7c5 0 9.1 4.1 9.1 9.1-0.1 5-4.1 9.1-9.1 9.1z" fill="#1A1A1A" /><path d="M538.3 838.9c-6 0-10.9-4.9-10.9-10.9v-94.7c0-6 4.9-10.9 10.9-10.9s10.9 4.9 10.9 10.9V828c0 6-4.9 10.9-10.9 10.9z" fill="#1A1A1A" /><path d="M571.8 825c-2.8 0-5.6-1.1-7.7-3.2l-67-67c-4.3-4.3-4.3-11.2 0-15.4 4.3-4.3 11.2-4.3 15.4 0l67 67c4.3 4.3 4.3 11.2 0 15.4-2.1 2.1-4.9 3.2-7.7 3.2z" fill="#1A1A1A" /><path d="M504.8 825c-2.8 0-5.6-1.1-7.7-3.2-4.3-4.3-4.3-11.2 0-15.4l67-67c4.3-4.3 11.2-4.3 15.4 0 4.3 4.3 4.3 11.2 0 15.4l-67 67c-2.1 2.1-4.9 3.2-7.7 3.2z" fill="#1A1A1A" /><path d="M585.7 791.5H491c-6 0-10.9-4.9-10.9-10.9s4.9-10.9 10.9-10.9h94.7c6 0 10.9 4.9 10.9 10.9s-4.9 10.9-10.9 10.9z" fill="#1A1A1A" /></svg>