<svg width="403" height="403" viewBox="0 0 403 403" fill="none" xmlns="http://www.w3.org/2000/svg">
<g filter="url(#filter0_bdf_635_30)">
<path d="M303 201.5C303 257.557 257.557 303 201.5 303C145.443 303 100 257.557 100 201.5C100 145.443 145.443 100 201.5 100C257.557 100 303 145.443 303 201.5Z" fill="url(#paint0_radial_635_30)"/>
</g>
<path d="M285 202C285 247.84 247.84 285 202 285C156.16 285 119 247.84 119 202C119 156.16 156.16 119 202 119C247.84 119 285 156.16 285 202Z" fill="url(#paint1_radial_635_30)"/>
<defs>
<filter id="filter0_bdf_635_30" x="0" y="0" width="403" height="403" filterUnits="userSpaceOnUse" color-interpolation-filters="sRGB">
<feFlood flood-opacity="0" result="BackgroundImageFix"/>
<feGaussianBlur in="BackgroundImageFix" stdDeviation="20"/>
<feComposite in2="SourceAlpha" operator="in" result="effect1_backgroundBlur_635_30"/>
<feColorMatrix in="SourceAlpha" type="matrix" values="0 0 0 0 0 0 0 0 0 0 0 0 0 0 0 0 0 0 127 0" result="hardAlpha"/>
<feOffset dy="4"/>
<feGaussianBlur stdDeviation="8"/>
<feComposite in2="hardAlpha" operator="out"/>
<feColorMatrix type="matrix" values="0 0 0 0 0 0 0 0 0 0 0 0 0 0 0 0 0 0 0.25 0"/>
<feBlend mode="normal" in2="effect1_backgroundBlur_635_30" result="effect2_dropShadow_635_30"/>
<feBlend mode="normal" in="SourceGraphic" in2="effect2_dropShadow_635_30" result="shape"/>
<feGaussianBlur stdDeviation="50" result="effect3_foregroundBlur_635_30"/>
</filter>
<radialGradient id="paint0_radial_635_30" cx="0" cy="0" r="1" gradientUnits="userSpaceOnUse" gradientTransform="translate(242.348 152.483) rotate(127.112) scale(172.836)">
<stop stop-color="#FFD600"/>
<stop offset="1" stop-color="#FF6B00"/>
</radialGradient>
<radialGradient id="paint1_radial_635_30" cx="0" cy="0" r="1" gradientUnits="userSpaceOnUse" gradientTransform="translate(235.402 161.917) rotate(127.112) scale(141.334)">
<stop stop-color="#FFD600"/>
<stop offset="1" stop-color="#FF6B00"/>
</radialGradient>
</defs>
</svg>
