<?xml version="1.0" encoding="utf-8"?>
<!-- Uploaded to: SVG Repo, www.svgrepo.com, Generator: SVG Repo Mixer Tools -->
<svg width="800px" height="800px" viewBox="0 0 1024 1024" class="icon"  version="1.1" xmlns="http://www.w3.org/2000/svg"><path d="M513.5 515.7m-217.1 0a217.1 217.1 0 1 0 434.2 0 217.1 217.1 0 1 0-434.2 0Z" fill="#00B36A" /><path d="M513.5 732.8c48.5 0 93.3-15.9 129.5-42.8-178.2-12.6-294.8-111-334.1-246.9-8.1 22.7-12.5 47.1-12.5 72.6-0.1 119.9 97.1 217.1 217.1 217.1z" fill="#009957" /><path d="M511.9 750.3c-132 0-239.3-107.4-239.3-239.3S380 271.7 511.9 271.7c29.3 0 57.9 5.2 85.1 15.6 11.5 4.4 17.2 17.2 12.9 28.7-4.4 11.5-17.2 17.2-28.7 12.9-22.1-8.4-45.4-12.7-69.3-12.7C404.4 316.1 317 403.5 317 511s87.4 194.9 194.9 194.9S706.8 618.5 706.8 511c0-11.5-1-23.1-3-34.3-2.1-12.1 5.9-23.6 18-25.8 12.1-2.1 23.6 5.9 25.8 18 2.4 13.8 3.7 28 3.7 42.1-0.1 132-107.4 239.3-239.4 239.3z" fill="#1A1A1A" /><path d="M512.8 215.6c-14.1 0-25.7-11.6-25.7-25.7V92.4c0-14.1 11.6-25.7 25.7-25.7s25.7 11.6 25.7 25.7v97.5c0 14.1-11.5 25.7-25.7 25.7zM512.8 811.1c-14.1 0-25.7 11.6-25.7 25.7v97.5c0 14.1 11.6 25.7 25.7 25.7s25.7-11.6 25.7-25.7v-97.5c0-14.1-11.5-25.7-25.7-25.7zM807.3 510.1c0 14.1 11.6 25.7 25.7 25.7h97.5c14.1 0 25.7-11.6 25.7-25.7s-11.6-25.7-25.7-25.7H833c-14.1 0-25.7 11.5-25.7 25.7zM218 510.1c0 14.1-11.6 25.7-25.7 25.7H94.8c-14.1 0-25.7-11.6-25.7-25.7s11.6-25.7 25.7-25.7h97.5c14.2 0 25.7 11.5 25.7 25.7zM723.3 302.9c-10-10-10-26.3 0-36.3l56.6-56.6c10-10 26.3-10 36.3 0 10 10 10 26.3 0 36.3l-56.6 56.6c-9.9 10-26.3 10-36.3 0zM302 302.9c10-10 10-26.3 0-36.3L245.4 210c-10-10-26.3-10-36.3 0-10 10-10 26.3 0 36.3l56.6 56.6c10 10 26.3 10 36.3 0z" fill="#1A1A1A" /><path d="M723.3 717.6c-10 10-10 26.3 0 36.3l56.6 56.6c10 10 26.3 10 36.3 0 10-10 10-26.3 0-36.3l-56.6-56.6c-9.9-10-26.3-10-36.3 0z" fill="#1A1A1A" /><path d="M302 717.6c10 10 10 26.3 0 36.3l-56.6 56.6c-10 10-26.3 10-36.3 0-10-10-10-26.3 0-36.3l56.6-56.6c10-10 26.3-10 36.3 0z" fill="#1A1A1A" /></svg>