<svg xmlns="http://www.w3.org/2000/svg" width="800" height="800" fill="none" viewBox="0 0 24 24"><g id="SVGRepo_iconCarrier"><path stroke="#00B36A" stroke-linecap="round" stroke-width="1.5" d="M3 8H5M7 5.85714V5.5C7 4.11929 8.11929 3 9.5 3C10.8807 3 12 4.11929 12 5.5C12 6.88071 10.8807 8 9.5 8H8"/><path stroke="#00B36A" stroke-linecap="round" stroke-width="1.5" d="M4 14H5M15 17V17.5C15 19.433 16.567 21 18.5 21C20.433 21 22 19.433 22 17.5C22 15.567 20.433 14 18.5 14H9"/><path stroke="#00B36A" stroke-linecap="round" stroke-width="1.5" d="M2 11H8M15 8V7.5C15 5.567 16.567 4 18.5 4C20.433 4 22 5.567 22 7.5C22 9.433 20.433 11 18.5 11H12.25"/></g></svg>